<?xml version="1.0" encoding="utf-8"?>
<!-- Generator: Adobe Illustrator 23.0.5, SVG Export Plug-In . SVG Version: 6.00 Build 0)  -->
<svg version="1.1" id="Layer_1" xmlns="http://www.w3.org/2000/svg" xmlns:xlink="http://www.w3.org/1999/xlink" x="0px" y="0px"
	 viewBox="0 0 604.4 548.6" style="enable-background:new 0 0 604.4 548.6;" xml:space="preserve">
<style type="text/css">
	.st0{fill:#FFFFFF;}
</style>
<g>
	<path class="st0" d="M199.8,1.4l0,25.8h-97.3V1.6L199.8,1.4z M138.5,142.6v-107h25.2v107H138.5z"/>
	<path class="st0" d="M260,116.2c1.6,0.8,3.2,1.2,5,1.6v25.6c-5-0.4-10.1-1.4-14.7-3.4c-6-2.6-11.3-6.2-15.9-10.9
		c-4.6-4.6-8.3-9.9-10.9-15.9s-3.8-12.5-3.8-19.3V3.2h25.6v90.4c0,3.4,0.6,6.6,1.8,9.7c1.2,3,3,5.6,5.2,7.9
		C252.3,111.2,257,114.8,260,116.2z M319.8,3v90.6c0,6.8-1.4,13.3-4,19.3s-6.2,11.3-10.9,15.9c-4.4,4.6-9.7,8.3-15.7,10.9
		c-4.6,2-9.7,3-14.9,3.4v-25.6c1.6-0.4,3.2-0.8,4.8-1.4c3-1.4,5.6-3.2,7.9-5.4c4.8-4.8,7.3-10.7,7.3-17.3V3H319.8z"/>
	<path class="st0" d="M339.9,1.2c7.5,0.2,14.5,0.2,21.4,0.2c1.4,0,2.8,0.4,4.2,0.4v140.4c-1.4,0-2.8,0.4-4.2,0.4
		c-6.8,0-13.9,0-21.4,0V1.4L339.9,1.2L339.9,1.2z M432.2,44.3c3.6,8.5,5.4,17.5,5.4,27.2s-1.8,18.7-5.4,27.2
		c-3.6,8.5-8.7,15.9-15.1,22.4c-5.8,5.8-11.7,10.3-17.7,13.1c-6,2.8-12.1,4.8-18.3,6c-2,0.4-4.2,0.4-6.2,0.6v-25.2
		c3.6-0.6,7-1.4,10.3-2.8c5.2-2.4,10.1-5.6,14.3-9.7c4-4,7.3-8.9,9.5-14.3c2.2-5.4,3.4-11.3,3.4-17.5c0-6-1.2-11.7-3.4-17.1
		c-2.2-5.4-5.4-10.1-9.5-14.1c-4.2-4-9.1-7.3-14.3-9.7c-3.2-1.4-6.6-2.2-10.3-2.8V2.2c2,0.2,4.2,0.2,6.2,0.6
		c6.2,1.2,12.3,3.2,18.3,6.2c6,3,11.9,7.5,17.7,13.3c6.4,6.4,11.5,13.9,15.1,22.4V44.3z"/>
	<path class="st0" d="M457.8,142.8V2h25.6v140.8L457.8,142.8L457.8,142.8z"/>
	<path class="st0" d="M518.4,14.3c4.6-4.6,9.9-8.3,15.9-10.9c4.2-1.8,8.9-2.8,13.5-3.4v25.8c-1.2,0.4-2.4,0.8-3.6,1.4
		c-3,1.4-5.6,3.2-7.9,5.4c-2.2,2.2-4,4.8-5.4,7.9c-1.4,3-2,6.2-2,9.7v43.5c0,3.4,0.6,6.6,2,9.7c1.4,3,3.2,5.6,5.4,7.9
		c2.2,2.2,4.8,4,7.9,5.2c1.2,0.4,2.4,0.8,3.6,1v25.8c-4.6-0.6-9.3-1.6-13.5-3.4c-6-2.6-11.3-6.2-15.9-10.9s-8.3-9.9-10.9-15.9
		c-2.6-6-3.8-12.5-3.8-19.3V50.2c0-6.8,1.2-13.3,3.8-19.3s6.2-11.3,10.9-15.9V14.3z M600.6,30.8c2.6,6,3.8,12.5,3.8,19.3v43.5
		c0,6.8-1.2,13.3-3.8,19.3s-6.2,11.3-10.9,15.9c-4.6,4.6-10.1,8.3-16.1,10.9c-5,2.2-10.7,3.2-16.5,3.6v-25.6
		c2.2-0.2,4.4-0.6,6.4-1.4c3-1.2,5.6-3,7.9-5.2c2.2-2.2,4-4.8,5.4-7.9c1.4-3,2-6.2,2-9.7V50.2c0-3.4-0.6-6.6-2-9.7
		c-1.4-3-3.2-5.6-5.4-7.9c-2.2-2.2-4.8-4-7.9-5.4c-2-0.8-4.2-1.2-6.4-1.4V0.2c5.8,0.4,11.5,1.4,16.5,3.6c6,2.6,11.5,6.2,16.1,10.9
		c4.6,4.6,8.3,9.9,10.9,15.9V30.8z"/>
	<path class="st0" d="M0.1,198.6c7.5,0.2,14.5,0.2,21.4,0.2c1.4,0,2.8,0.4,4.2,0.4v140.4c-1.4,0-2.8,0.4-4.2,0.4
		c-6.8,0-13.9,0-21.4,0V198.8C0.1,198.8,0.1,198.6,0.1,198.6z M92.4,241.7c3.6,8.5,5.4,17.5,5.4,27.2s-1.8,18.7-5.4,27.2
		c-3.6,8.5-8.7,15.9-15.1,22.4c-5.8,5.8-11.7,10.3-17.7,13.1c-6,2.8-12.1,4.8-18.3,6c-2,0.4-4.2,0.4-6.2,0.6V313
		c3.6-0.6,7-1.4,10.3-2.8c5.2-2.4,10.1-5.6,14.3-9.7c4-4,7.3-8.9,9.5-14.3c2.2-5.4,3.4-11.3,3.4-17.5c0-6-1.2-11.7-3.4-17.1
		c-2.2-5.4-5.4-10.1-9.5-14.1c-4.2-4-9.1-7.3-14.3-9.7c-3.2-1.4-6.6-2.2-10.3-2.8v-25.4c2,0.2,4.2,0.2,6.2,0.6
		c6.2,1.2,12.3,3.2,18.3,6.2c6,3,11.9,7.5,17.7,13.3c6.4,6.4,11.5,13.9,15.1,22.4V241.7z"/>
	<path class="st0" d="M140.1,340.2V199.4h25.6v140.8H140.1z"/>
	<path class="st0" d="M270.1,294.1l7,25.6h-37.3l-2,7.9l-3.4,12.3H208l36.9-137.6l13.3,48.9l-11.7,43.1L270.1,294.1z M313.6,340H292
		l-38.5-141h22.6L313.6,340z"/>
	<path class="st0" d="M422.9,274.3l32.4,61.2v4.6h-25.2l-39.3-70.9l-35-66.1V199h25.6L422.9,274.3z M355.9,223l25.6,48.1v69.1h-25.6
		V223z M455.4,199v116.8l-25.6-48.1V199H455.4z"/>
	<path class="st0" d="M559.5,294.1l7,25.6h-37.3l-2,7.9l-3.4,12.3h-26.4l36.9-137.6l13.3,48.9l-11.7,43.1L559.5,294.1z M603,340
		h-21.6L543,199h22.6L603,340z"/>
	<path class="st0" d="M0.1,406.8h25.4v141.4H0.1V406.8z M34.8,548.2v-25.6h48.5v25.6H34.8z"/>
	<path class="st0" d="M131.1,419.5c4.6-4.6,9.9-8.3,15.9-10.9c4.2-1.8,8.9-2.8,13.5-3.4V431c-1.2,0.4-2.4,0.8-3.6,1.4
		c-3,1.4-5.6,3.2-7.9,5.4c-2.2,2.2-4,4.8-5.4,7.9c-1.4,3-2,6.2-2,9.7v43.5c0,3.4,0.6,6.6,2,9.7s3.2,5.6,5.4,7.9
		c2.2,2.2,4.8,4,7.9,5.2c1.2,0.4,2.4,0.8,3.6,1v25.8c-4.6-0.6-9.3-1.6-13.5-3.4c-6-2.6-11.3-6.2-15.9-10.9
		c-4.6-4.6-8.3-9.9-10.9-15.9c-2.6-6-3.8-12.5-3.8-19.3v-43.5c0-6.8,1.2-13.3,3.8-19.3c2.6-6,6.2-11.3,10.9-15.9L131.1,419.5
		L131.1,419.5z M213.3,436c2.6,6,3.8,12.5,3.8,19.3v43.5c0,6.8-1.2,13.3-3.8,19.3c-2.6,6-6.2,11.3-10.9,15.9
		c-4.6,4.6-10.1,8.3-16.1,10.9c-5,2.2-10.7,3.2-16.5,3.6V523c2.2-0.2,4.4-0.6,6.4-1.4c3-1.2,5.6-3,7.9-5.2c2.2-2.2,4-4.8,5.4-7.9
		c1.4-3,2-6.2,2-9.7v-43.5c0-3.4-0.6-6.6-2-9.7s-3.2-5.6-5.4-7.9c-2.2-2.2-4.8-4-7.9-5.4c-2-0.8-4.2-1.2-6.4-1.4v-25.6
		c5.8,0.4,11.5,1.4,16.5,3.6c6,2.6,11.5,6.2,16.1,10.9c4.6,4.6,8.3,9.9,10.9,15.9L213.3,436L213.3,436z"/>
	<path class="st0" d="M285,407.2v76.3v65.1h-25.6V407.4L285,407.2z M348.2,431c2,4.6,3,9.5,3,14.5c0,5.2-1,10.3-3,14.9
		s-4.8,8.7-8.3,12.1c-3.4,3.4-7.5,6-12.1,8.1c-4.6,2-9.7,3-14.9,3h-19.1V458h19.3c3.8,0,6.8-1.2,9.1-3.8c2.6-2,3.8-5,3.8-8.9
		c0-3.4-1.2-6.4-3.8-8.9c-2-2.2-5-3.4-8.9-3.4H294v-25.6h19.3c5.2,0,10.3,1,14.9,3c4.6,2,8.7,4.6,12.1,8.1c3.4,3.4,6.2,7.5,8.3,12.1
		L348.2,431z"/>
	<path class="st0" d="M394.9,407h24.6v141h-25.6V407.2h1V407z M428.8,432.6V407h36.7v25.6H428.8z M428.8,489.6v-25.2h36.7v25.2
		H428.8z M428.8,548v-25.6h36.7V548H428.8z"/>
	<path class="st0" d="M526.5,546.8l-18.9,0.2v-22l50.4-93.1l13.5-24.6h17.3l0.2,17.9L540,522.4L526.5,546.8z M547.2,432.2h-39.7
		v-24.6h53.2L547.2,432.2z M595.2,522.4v24.4h-58l13.5-24.4H595.2z"/>
	
		<rect x="134.7" y="373.9" transform="matrix(0.9798 -0.1998 0.1998 0.9798 -73.1951 40.8777)" class="st0" width="62.5" height="18.3"/>
	<path class="st0" d="M53.7,42.6c0,1,0.1,1.6,0.1,1.8c0,0,0,0.1,0,0.1l25.5,0.4c0-4.6-0.4-8.7-1.2-12.1c-0.8-3.4-2-7-3.6-10.9
		s-4-7.3-7.3-10.5S59.8,5.8,54.5,4c-3-1-6.6-1.6-10.5-1.8v17.4v8.8C48.9,30.1,53,34,53.7,42.6z"/>
	<path class="st0" d="M25.8,101.9c0-1-0.1-1.6-0.1-1.8c0,0,0-0.1,0-0.1L0.3,99.5c0,4.6,0.4,8.7,1.2,12.1c0.8,3.4,2,7.1,3.6,10.9
		c1.6,3.8,4,7.3,7.3,10.5s7.5,5.6,12.7,7.5c3,1,6.6,1.6,10.5,1.8v-17.4v-8.8C30.6,114.4,26.5,110.5,25.8,101.9z"/>
	<path class="st0" d="M82.3,105.3c0,0-0.1-0.2-0.1-0.6c-1.1-16.9-12.3-28.4-12.3-28.4l0,0.1c-0.5-0.6-1-1.1-1.4-1.7
		c-3.2-3.4-6.8-6.2-10.9-8.7c-4-2.4-8.1-4.8-12.1-7.1c-2.4-1.2-4.8-2.4-7-3.8s-4.2-2.8-6-4.4s-3.4-3.4-4.6-5.4c-1.2-2-1.8-4.4-2-7
		v-0.2c-0.4-2.8,0.2-5.2,1.8-7c1-1,2.4-1.8,4-2.6c1-0.4,2.6-0.6,4-0.8V1.8c-6,0.4-11.3,1.6-15.7,3.8c-4.4,2.2-8.1,5-11.1,8.5
		C5.4,17.7,3,21.8,1.6,26.2c-1.4,4.4-1.8,9.1-1.4,13.9C0.8,46.3,2,51.6,4,55.8s4.6,7.9,7.7,10.9c3,3,6.4,5.6,10.3,7.9
		s7.7,4.4,11.7,6.6c2.6,1.4,5.2,3,7.9,4.6c2.6,1.6,5,3.4,7.3,5.4c0.1,0.1,0.2,0.2,0.3,0.3c8.1,7.9,12.7,23.7-3.6,24.9V142
		c0.6,0,1,0,1.6,0l2.4-0.2c6-0.8,11.1-2.2,15.3-4.4c4.2-2.2,7.7-4.8,10.3-8.1c3-3.4,5-7.3,6-11.3C82.1,114,82.5,109.8,82.3,105.3z"
		/>
</g>
</svg>
