<?xml version="1.0" encoding="utf-8"?>
<!-- Generator: Adobe Illustrator 17.0.0, SVG Export Plug-In . SVG Version: 6.00 Build 0)  -->
<!DOCTYPE svg PUBLIC "-//W3C//DTD SVG 1.1//EN" "http://www.w3.org/Graphics/SVG/1.1/DTD/svg11.dtd">
<svg version="1.1" id="Layer_1" xmlns="http://www.w3.org/2000/svg" xmlns:xlink="http://www.w3.org/1999/xlink" x="0px" y="0px"
	 width="604.418px" height="548.601px" viewBox="0 0 604.418 548.601" enable-background="new 0 0 604.418 548.601"
	 xml:space="preserve">
<g>
	<path d="M199.761,1.41l0.008,25.783h-97.297V1.611L199.761,1.41z M138.527,142.611V35.653h25.179v106.958H138.527z"/>
	<path d="M259.985,116.224c1.611,0.805,3.223,1.208,5.035,1.611v25.582c-5.035-0.403-10.072-1.41-14.704-3.424
		c-6.043-2.619-11.28-6.244-15.913-10.877c-4.632-4.633-8.258-9.87-10.877-15.913c-2.619-6.043-3.827-12.488-3.827-19.337V3.223
		h25.581v90.441c0,3.424,0.605,6.647,1.813,9.669c1.208,3.021,3.021,5.64,5.237,7.855
		C252.331,111.188,256.963,114.814,259.985,116.224z M319.808,3.022v90.643c0,6.848-1.41,13.294-4.029,19.337
		c-2.619,6.043-6.244,11.279-10.877,15.912c-4.431,4.633-9.668,8.258-15.71,10.877c-4.633,2.014-9.669,3.022-14.906,3.425v-25.582
		c1.611-0.403,3.223-0.805,4.834-1.41c3.022-1.41,5.64-3.223,7.856-5.439c4.834-4.834,7.252-10.675,7.252-17.323V3.022H319.808z"/>
	<path d="M339.946,1.208C347.4,1.41,354.45,1.41,361.298,1.41c1.41,0,2.82,0.402,4.231,0.402v140.395
		c-1.41,0-2.82,0.403-4.231,0.403c-6.848,0-13.898,0-21.351,0V1.41V1.208z M432.2,44.314c3.626,8.46,5.439,17.524,5.439,27.192
		S435.827,90.24,432.2,98.7c-3.625,8.46-8.661,15.912-15.106,22.358c-5.841,5.841-11.683,10.273-17.726,13.093
		c-6.042,2.82-12.085,4.834-18.329,6.043c-2.014,0.403-4.231,0.403-6.245,0.604v-25.179c3.626-0.604,7.05-1.41,10.273-2.82
		c5.237-2.417,10.072-5.64,14.302-9.669c4.029-4.028,7.252-8.863,9.468-14.302c2.215-5.438,3.423-11.279,3.423-17.524
		c0-6.043-1.208-11.683-3.423-17.121c-2.216-5.438-5.439-10.072-9.468-14.1c-4.229-4.029-9.064-7.252-14.302-9.669
		c-3.223-1.41-6.646-2.216-10.273-2.82V2.216c2.014,0.202,4.231,0.202,6.245,0.604c6.244,1.209,12.287,3.223,18.329,6.244
		c6.043,3.022,11.885,7.453,17.726,13.294c6.446,6.446,11.481,13.899,15.106,22.358V44.314z"/>
	<path d="M457.78,142.812V2.014h25.582v140.798H457.78z"/>
	<path d="M518.408,14.302c4.633-4.633,9.87-8.259,15.914-10.877c4.229-1.813,8.862-2.82,13.496-3.425v25.783
		c-1.21,0.403-2.418,0.806-3.626,1.41c-3.021,1.41-5.64,3.223-7.856,5.438c-2.215,2.216-4.028,4.834-5.438,7.855
		c-1.41,3.022-2.014,6.244-2.014,9.669v43.509c0,3.424,0.604,6.647,2.014,9.669c1.41,3.021,3.223,5.64,5.438,7.855
		c2.216,2.216,4.835,4.029,7.856,5.237c1.208,0.403,2.417,0.805,3.626,1.007v25.783c-4.633-0.604-9.266-1.611-13.496-3.425
		c-6.043-2.619-11.281-6.244-15.914-10.877c-4.633-4.633-8.258-9.87-10.877-15.912c-2.619-6.043-3.827-12.489-3.827-19.337V50.155
		c0-6.848,1.208-13.294,3.827-19.337c2.619-6.043,6.244-11.279,10.877-15.912V14.302z M600.591,30.818
		c2.619,6.043,3.827,12.489,3.827,19.337v43.509c0,6.848-1.208,13.294-3.827,19.337c-2.619,6.043-6.245,11.279-10.877,15.912
		c-4.633,4.633-10.072,8.258-16.114,10.877c-5.037,2.216-10.676,3.223-16.518,3.626v-25.582c2.216-0.201,4.431-0.604,6.446-1.41
		c3.022-1.208,5.641-3.022,7.856-5.237c2.216-2.216,4.029-4.834,5.439-7.855c1.409-3.022,2.013-6.244,2.013-9.669V50.155
		c0-3.424-0.604-6.647-2.013-9.669c-1.41-3.021-3.223-5.64-5.439-7.855c-2.215-2.216-4.834-4.029-7.856-5.438
		c-2.014-0.806-4.229-1.208-6.446-1.41V0.202c5.841,0.402,11.481,1.41,16.518,3.625c6.042,2.619,11.481,6.244,16.114,10.877
		c4.632,4.633,8.258,9.87,10.877,15.913V30.818z"/>
	<path d="M0.148,198.607c7.453,0.202,14.503,0.202,21.351,0.202c1.41,0,2.82,0.403,4.23,0.403v140.395
		c-1.41,0-2.82,0.402-4.23,0.402c-6.848,0-13.898,0-21.351,0v-141.2V198.607z M92.401,241.713c3.626,8.46,5.439,17.524,5.439,27.193
		s-1.813,18.733-5.439,27.192c-3.625,8.46-8.661,15.914-15.107,22.359c-5.841,5.841-11.682,10.273-17.726,13.092
		c-6.043,2.82-12.085,4.835-18.33,6.043c-2.014,0.402-4.23,0.402-6.244,0.604v-25.179c3.625-0.604,7.05-1.41,10.273-2.819
		c5.237-2.418,10.072-5.641,14.301-9.669c4.029-4.029,7.252-8.864,9.467-14.302c2.216-5.439,3.424-11.281,3.424-17.524
		c0-6.043-1.208-11.683-3.424-17.122c-2.216-5.438-5.438-10.071-9.467-14.099c-4.229-4.029-9.064-7.252-14.301-9.669
		c-3.223-1.41-6.647-2.216-10.273-2.82v-25.38c2.014,0.202,4.23,0.202,6.244,0.604c6.244,1.209,12.287,3.223,18.33,6.244
		c6.043,3.022,11.885,7.453,17.726,13.294c6.446,6.446,11.482,13.899,15.107,22.358V241.713z"/>
	<path d="M140.138,340.211V199.413h25.581v140.798H140.138z"/>
	<path d="M270.056,294.085l7.05,25.581h-37.264l-2.014,7.856l-3.424,12.287h-26.387l36.861-137.576l13.294,48.947l-11.683,43.105
		L270.056,294.085z M313.564,340.009h-21.552L253.539,199.01h22.56L313.564,340.009z"/>
	<path d="M422.936,274.344l32.43,61.234v4.633h-25.179l-39.278-70.902l-35.049-66.068v-4.23h25.582L422.936,274.344z
		 M355.861,222.98l25.582,48.141v69.09h-25.582V222.98z M455.367,199.01v116.828l-25.581-48.141V199.01H455.367z"/>
	<path d="M559.502,294.085l7.05,25.581h-37.264l-2.014,7.856l-3.425,12.287h-26.387l36.861-137.576l13.295,48.947l-11.683,43.105
		L559.502,294.085z M603.011,340.009h-21.553L542.985,199.01h22.56L603.011,340.009z"/>
	<path d="M0.148,406.796h25.38v141.403H0.148V406.796z M34.793,548.198v-25.582h48.544v25.582H34.793z"/>
	<path d="M131.073,419.485c4.632-4.632,9.87-8.258,15.912-10.877c4.23-1.813,8.863-2.819,13.496-3.423v25.783
		c-1.208,0.402-2.417,0.805-3.625,1.409c-3.022,1.41-5.64,3.223-7.856,5.439c-2.216,2.215-4.029,4.834-5.438,7.856
		c-1.41,3.021-2.014,6.244-2.014,9.669v43.508c0,3.425,0.604,6.647,2.014,9.669c1.41,3.022,3.223,5.641,5.438,7.856
		c2.216,2.216,4.834,4.029,7.856,5.237c1.208,0.402,2.417,0.806,3.625,1.007v25.783c-4.632-0.604-9.266-1.611-13.496-3.423
		c-6.043-2.619-11.28-6.245-15.912-10.877c-4.633-4.633-8.259-9.87-10.878-15.914c-2.619-6.042-3.827-12.488-3.827-19.337V455.34
		c0-6.849,1.208-13.295,3.827-19.337c2.619-6.043,6.244-11.281,10.878-15.914V419.485z M213.255,436.003
		c2.619,6.042,3.828,12.488,3.828,19.337v43.508c0,6.849-1.209,13.295-3.828,19.337c-2.618,6.043-6.244,11.281-10.877,15.914
		c-4.632,4.632-10.071,8.258-16.114,10.877c-5.035,2.215-10.676,3.223-16.517,3.625V523.02c2.216-0.202,4.431-0.604,6.446-1.41
		c3.021-1.208,5.64-3.021,7.855-5.237c2.216-2.215,4.029-4.834,5.438-7.856c1.41-3.021,2.014-6.244,2.014-9.669V455.34
		c0-3.425-0.604-6.647-2.014-9.669c-1.41-3.022-3.223-5.641-5.438-7.856c-2.216-2.216-4.834-4.029-7.855-5.439
		c-2.014-0.805-4.23-1.208-6.446-1.409v-25.582c5.841,0.404,11.481,1.41,16.517,3.626c6.043,2.619,11.482,6.244,16.114,10.877
		c4.633,4.633,8.259,9.869,10.877,15.912V436.003z"/>
	<path d="M284.962,407.198v76.342v65.061h-25.581V407.4L284.962,407.198z M348.21,430.967c2.014,4.632,3.021,9.467,3.021,14.502
		c0,5.237-1.007,10.273-3.021,14.906c-2.014,4.633-4.834,8.662-8.258,12.085c-3.425,3.425-7.453,6.043-12.085,8.058
		c-4.633,2.014-9.669,3.021-14.906,3.021h-19.136v-25.581h19.336c3.827,0,6.849-1.208,9.064-3.827
		c2.619-2.014,3.827-5.037,3.827-8.864c0-3.423-1.208-6.446-3.827-8.863c-2.013-2.215-5.035-3.425-8.863-3.425h-19.336V407.4h19.336
		c5.237,0,10.273,1.008,14.906,3.021c4.633,2.014,8.662,4.633,12.085,8.058c3.425,3.425,6.245,7.452,8.258,12.085L348.21,430.967z"
		/>
	<path d="M394.941,406.997h24.574v140.999h-25.582V407.198h1.008V406.997z M428.78,432.578v-25.581h36.66v25.581H428.78z
		 M428.78,489.583v-25.178h36.66v25.178H428.78z M428.78,547.996v-25.581h36.66v25.581H428.78z"/>
	<path d="M526.47,546.788l-18.933,0.202v-21.956l50.357-93.06l13.496-24.574h17.323l0.201,17.927l-48.947,97.089L526.47,546.788z
		 M547.217,432.176h-39.681v-24.574h53.176L547.217,432.176z M595.157,522.415v24.373h-58.011l13.496-24.373H595.157z"/>
	
		<rect x="134.696" y="373.922" transform="matrix(0.9798 -0.1998 0.1998 0.9798 -73.1959 40.8779)" width="62.472" height="18.332"/>
	<path d="M53.745,42.581c0.027,0.968,0.078,1.565,0.095,1.83c0.001,0.043,0.005,0.083,0.006,0.126l25.463,0.381
		c0-4.633-0.403-8.661-1.208-12.086c-0.806-3.424-2.014-7.05-3.626-10.877s-4.028-7.252-7.251-10.475s-7.453-5.64-12.69-7.452
		c-3.022-1.007-6.647-1.611-10.475-1.813V19.58v8.822C48.926,30.069,53.048,33.993,53.745,42.581z"/>
	<path d="M25.83,101.886c-0.027-0.968-0.078-1.565-0.095-1.83c-0.001-0.043-0.005-0.083-0.006-0.126L0.266,99.548
		c0,4.633,0.403,8.661,1.208,12.086c0.806,3.424,2.014,7.05,3.626,10.877c1.611,3.827,4.028,7.252,7.251,10.475
		s7.453,5.64,12.69,7.452c3.022,1.007,6.647,1.611,10.475,1.813v-17.364v-8.822C30.649,114.398,26.527,110.474,25.83,101.886z"/>
	<path d="M82.331,105.347c0,0-0.05-0.229-0.141-0.633c-1.129-16.947-12.335-28.399-12.335-28.399l0.027,0.075
		c-0.48-0.559-0.951-1.13-1.45-1.66c-3.223-3.424-6.849-6.244-10.877-8.661c-4.029-2.417-8.057-4.834-12.086-7.05
		c-2.417-1.208-4.834-2.417-7.05-3.827c-2.216-1.41-4.23-2.82-6.043-4.431c-1.813-1.611-3.425-3.425-4.633-5.438
		c-1.208-2.014-1.813-4.432-2.014-7.05V38.07c-0.402-2.82,0.202-5.237,1.813-7.05c1.007-1.007,2.417-1.813,4.028-2.619
		c1.007-0.403,2.619-0.604,4.029-0.806V1.813c-6.043,0.403-11.28,1.612-15.711,3.828c-4.432,2.216-8.058,5.035-11.079,8.46
		c-3.425,3.626-5.841,7.655-7.252,12.086c-1.41,4.431-1.813,9.064-1.41,13.899c0.604,6.244,1.813,11.481,3.827,15.711
		s4.632,7.856,7.654,10.877c3.022,3.022,6.446,5.64,10.273,7.856c3.827,2.216,7.655,4.431,11.683,6.647
		c2.619,1.41,5.237,3.022,7.856,4.633c2.618,1.611,5.035,3.424,7.251,5.438c0.11,0.1,0.226,0.176,0.339,0.267
		c8.136,7.922,12.698,23.688-3.562,24.911v25.582c0.604,0,1.007,0,1.611,0l2.417-0.202c6.043-0.805,11.078-2.216,15.308-4.431
		c4.23-2.216,7.654-4.834,10.273-8.057c3.022-3.424,5.036-7.252,6.043-11.28C82.129,114.008,82.532,109.778,82.331,105.347z"/>
</g>
</svg>
